<?xml version="1.0" encoding="utf-8"?>
<!-- Generator: Adobe Illustrator 22.1.0, SVG Export Plug-In . SVG Version: 6.00 Build 0)  -->
<svg version="1.1" id="Layer_1" xmlns="http://www.w3.org/2000/svg" xmlns:xlink="http://www.w3.org/1999/xlink" x="0px" y="0px"
	 viewBox="0 0 214.4 214.4" style="enable-background:new 0 0 214.4 214.4;" xml:space="preserve">
<path d="M197.6,99.6c-0.7-1.4-2-2.2-3.6-2.2h-32V7.3c0-2.2-1.7-4.4-3.8-4.4H55.9c-2.2,0-4.1,2.2-4.1,4.4v90.1H20.5
	c-1.5,0-2.9,0.9-3.6,2.2c-0.6,1.4-0.5,3,0.5,4.2l86.8,106.3c0.8,0.9,1.9,1.4,3,1.4c1.2,0,2.3-0.5,3.1-1.5l86.8-106.3
	C198.1,102.6,198.3,101,197.6,99.6z"/>
</svg>
