<?xml version="1.0" encoding="utf-8"?>
<!-- Generator: Adobe Illustrator 22.1.0, SVG Export Plug-In . SVG Version: 6.00 Build 0)  -->
<svg version="1.1" id="Layer_1" xmlns="http://www.w3.org/2000/svg" xmlns:xlink="http://www.w3.org/1999/xlink" x="0px" y="0px"
	 viewBox="0 0 214.4 214.4" style="enable-background:new 0 0 214.4 214.4;" xml:space="preserve">
<path fill="#333" d="M99.6,16.9c-1.4,0.7-2.2,2-2.2,3.6v32H7.3c-2.2,0-4.4,1.7-4.4,3.8v102.3c0,2.2,2.2,4.1,4.4,4.1h90.1V194
	c0,1.5,0.9,2.9,2.2,3.6c1.4,0.6,3,0.5,4.2-0.5l106.3-86.8c0.9-0.8,1.4-1.9,1.4-3c0-1.2-0.5-2.3-1.5-3.1L103.7,17.4
	C102.6,16.4,101,16.2,99.6,16.9z"/>
</svg>
