<?xml version="1.0" encoding="utf-8"?>
<!-- Generator: Adobe Illustrator 22.1.0, SVG Export Plug-In . SVG Version: 6.00 Build 0)  -->
<svg version="1.1" id="Layer_1" xmlns="http://www.w3.org/2000/svg" xmlns:xlink="http://www.w3.org/1999/xlink" x="0px" y="0px"
	 viewBox="0 0 214.4 214.4" style="enable-background:new 0 0 214.4 214.4;" xml:space="preserve">
<path d="M30.6,158.6c1.5,0.5,3,0.1,4.1-1l22.6-22.6l63.7,63.7c1.6,1.6,4.3,1.9,5.8,0.4l72.3-72.3c1.6-1.6,1.3-4.5-0.2-6L135.2,57
	l22.1-22.1c1.1-1.1,1.4-2.7,1-4.1c-0.6-1.4-1.8-2.5-3.3-2.6L18.5,14.4c-1.2-0.1-2.3,0.4-3.1,1.1c-0.8,0.8-1.3,2-1.1,3.3L28,155.3
	C28.1,156.8,29.1,158.1,30.6,158.6z"/>
</svg>
