<?xml version="1.0" encoding="utf-8"?>
<!-- Generator: Adobe Illustrator 22.1.0, SVG Export Plug-In . SVG Version: 6.00 Build 0)  -->
<svg version="1.1" id="Layer_1" xmlns="http://www.w3.org/2000/svg" xmlns:xlink="http://www.w3.org/1999/xlink" x="0px" y="0px"
	 viewBox="0 0 214.4 214.4" style="enable-background:new 0 0 214.4 214.4;" xml:space="preserve">
<path d="M183.8,55.8c-1.5-0.5-3-0.1-4.1,1l-22.6,22.6L93.4,15.7c-1.6-1.6-4.3-1.9-5.8-0.4L15.3,87.7c-1.6,1.6-1.3,4.5,0.2,6
	l63.7,63.7l-22.1,22.1c-1.1,1.1-1.4,2.7-1,4.1c0.6,1.4,1.8,2.5,3.3,2.6L195.9,200c1.2,0.1,2.3-0.4,3.1-1.1c0.8-0.8,1.3-2,1.1-3.3
	L186.4,59.1C186.3,57.6,185.3,56.3,183.8,55.8z"/>
</svg>
