<?xml version="1.0" encoding="utf-8"?>
<!-- Generator: Adobe Illustrator 22.1.0, SVG Export Plug-In . SVG Version: 6.00 Build 0)  -->
<svg version="1.1" id="Layer_1" xmlns="http://www.w3.org/2000/svg" xmlns:xlink="http://www.w3.org/1999/xlink" x="0px" y="0px"
	 viewBox="0 0 214.4 214.4" style="enable-background:new 0 0 214.4 214.4;" xml:space="preserve">
<path fill="#333" d="M158.6,183.8c0.5-1.5,0.1-3-1-4.1l-22.6-22.6l63.7-63.7c1.6-1.6,1.9-4.3,0.4-5.8l-72.3-72.3c-1.6-1.6-4.5-1.3-6,0.2L57,79.2
	L34.9,57.1c-1.1-1.1-2.7-1.4-4.1-1c-1.4,0.6-2.5,1.8-2.6,3.3L14.4,195.9c-0.1,1.2,0.4,2.3,1.1,3.1c0.8,0.8,2,1.3,3.3,1.1l136.5-13.8
	C156.8,186.3,158.1,185.3,158.6,183.8z"/>
</svg>
