<?xml version="1.0" encoding="utf-8"?>
<!-- Generator: Adobe Illustrator 22.1.0, SVG Export Plug-In . SVG Version: 6.00 Build 0)  -->
<svg version="1.1" id="Layer_1" xmlns="http://www.w3.org/2000/svg" xmlns:xlink="http://www.w3.org/1999/xlink" x="0px" y="0px"
	 viewBox="0 0 214.4 214.4" style="enable-background:new 0 0 214.4 214.4;" xml:space="preserve">
<path fill="#333" d="M55.8,30.6c-0.5,1.5-0.1,3,1,4.1l22.6,22.6L15.7,121c-1.6,1.6-1.9,4.3-0.4,5.8l72.3,72.3c1.6,1.6,4.5,1.3,6-0.2l63.7-63.7
	l22.1,22.1c1.1,1.1,2.7,1.4,4.1,1c1.4-0.6,2.5-1.8,2.6-3.3L200,18.5c0.1-1.2-0.4-2.3-1.1-3.1c-0.8-0.8-2-1.3-3.3-1.1L59.1,28
	C57.6,28.1,56.3,29.1,55.8,30.6z"/>
</svg>
