<?xml version="1.0" encoding="utf-8"?>
<!-- Generator: Adobe Illustrator 22.1.0, SVG Export Plug-In . SVG Version: 6.00 Build 0)  -->
<svg version="1.1" id="Layer_1" xmlns="http://www.w3.org/2000/svg" xmlns:xlink="http://www.w3.org/1999/xlink" x="0px" y="0px"
	 viewBox="0 0 300 300" style="enable-background:new 0 0 300 300;" xml:space="preserve">
<path fill="#333" d="M150,232.6c-58.6,0-106.1-12.5-106.1-27.9c0,6,0,57.9,0,63.9c0,15.4,47.5,27.9,106.1,27.9
	s106.1-12.5,106.1-27.9c0-6,0-57.9,0-63.9C256.1,220.2,208.6,232.6,150,232.6z"/>
<ellipse fill="#333" cx="150" cy="195.2" rx="106.1" ry="27.9"/>
<polygon fill="#333" points="240,65 218.2,43.1 165.4,95.8 165.4,3.5 134.6,3.5 134.6,95.8 81.9,43.1 60,65 150,154.9 "/>
</svg>
