<?xml version="1.0" encoding="iso-8859-1"?>
<!-- Generator: Adobe Illustrator 16.0.0, SVG Export Plug-In . SVG Version: 6.00 Build 0)  -->
<!DOCTYPE svg PUBLIC "-//W3C//DTD SVG 1.1//EN" "http://www.w3.org/Graphics/SVG/1.1/DTD/svg11.dtd">
<svg version="1.1" id="Capa_1" xmlns="http://www.w3.org/2000/svg" xmlns:xlink="http://www.w3.org/1999/xlink" x="0px" y="0px"
	 width="563.041px" height="563.041px" viewBox="0 0 563.041 563.041" style="enable-background:new 0 0 563.041 563.041;"
	 xml:space="preserve">
<g>
	<g>
		<path d="M488.169,292.842c-1.805-0.637-6.426-1.383-18.238-1.383h-11.303c-1.738,0-3.152,1.408-3.152,3.152v16.297
			c0,1.738,1.408,3.152,3.152,3.152h13.867c9.443,0,12.963-0.318,14.254-0.588c2.631-0.484,4.645-1.572,6.225-3.336
			c1.512-1.707,2.252-4.027,2.252-7.074c0-2.619-0.588-4.73-1.793-6.475C492.233,294.881,490.501,293.65,488.169,292.842z"/>
		<path d="M458.622,267.462h8.018c8.291,0,13.475-0.116,15.396-0.343c2.98-0.355,5.318-1.358,6.941-2.974
			c1.541-1.542,2.287-3.574,2.287-6.224c0-1.254-0.158-2.399-0.477-3.396c-0.477-1.487-2.688-3.911-4.148-4.529
			c-1.018-0.435-2.229-0.741-3.605-0.906c-1.982-0.227-8.098-0.343-18.152-0.343h-6.254c-1.738,0-3.152,1.408-3.152,3.152v12.411
			C455.476,266.055,456.884,267.462,458.622,267.462z"/>
		<path d="M470.347,188.827c-51.113,0-92.693,41.579-92.693,92.693c0,51.115,41.58,92.693,92.693,92.693
			c51.115,0,92.693-41.584,92.693-92.693C563.04,230.406,521.462,188.827,470.347,188.827z M520.036,319.684
			c-2.492,5.068-5.961,9.182-10.301,12.217c-4.32,3.035-9.693,4.938-15.955,5.631c-3.85,0.396-12.748,0.648-26.463,0.746h-0.012
			H436.95c-5.109,0-9.271-4.162-9.271-9.271v-94.983c0-5.11,4.162-9.272,9.271-9.272h36.727c8.758,0,15.146,0.367,19.523,1.108
			c4.59,0.783,8.77,2.436,12.41,4.92c3.697,2.54,6.77,5.887,9.15,9.951c2.467,4.21,3.721,8.959,3.721,14.119
			c0,5.612-1.529,10.833-4.553,15.502c-1.764,2.729-3.924,5.098-6.408,7.026c-0.08,0.061-0.146,0.116-0.215,0.165
			c0.055,0.031,0.111,0.055,0.166,0.086c4.205,2.081,7.699,4.901,10.373,8.39c3.924,5.123,5.912,11.193,5.912,18.055
			C523.763,309.422,522.509,314.672,520.036,319.684z"/>
		<path d="M280.78,448.303l-8.58,23.568c-0.184,0.502-0.165,0.875-0.08,1.004c0.098,0.127,0.435,0.275,0.973,0.275h15.581
			c0.613,0,0.895-0.166,0.955-0.258c0.061-0.098,0.129-0.416-0.092-0.992L280.78,448.303z"/>
		<path d="M281.521,377.652c-51.114,0-92.693,41.58-92.693,92.693c0,51.115,41.579,92.695,92.693,92.695
			c51.115,0,92.693-41.58,92.693-92.695C374.214,419.232,332.636,377.652,281.521,377.652z M331.466,515.574
			c-1.248,1.848-3.42,2.906-5.961,2.906h-10.312c-4.461,0-9.039-3.146-10.635-7.307l-4.535-11.824
			c-0.68-1.77-3.029-3.385-4.934-3.385h-28.158c-1.879,0-4.168,1.609-4.811,3.379l-4.266,11.738
			c-1.512,4.148-6.15,7.398-10.569,7.398h-9.761c-2.534,0-4.712-1.059-5.967-2.9c-1.261-1.842-1.457-4.248-0.539-6.609
			l34.438-88.422c1.616-4.156,6.2-7.289,10.661-7.289h9.706c4.443,0,9.045,3.115,10.697,7.24l35.41,88.471
			C332.892,511.32,332.714,513.73,331.466,515.574z"/>
		<path d="M92.694,188.827c-51.114,0-92.693,41.579-92.693,92.693c0,51.115,41.579,92.693,92.693,92.693
			s92.694-41.578,92.694-92.693C185.388,230.406,143.809,188.827,92.694,188.827z M138.852,335.389
			c-1.028,1.908-3.152,3.012-5.82,3.012h-12.674c-4.217,0-9.119-2.682-11.396-6.236l-15.777-24.621
			c-0.275-0.424-0.508-0.576-0.569-0.6c0.037,0.023-0.202,0.17-0.477,0.605l-15.839,24.627c-2.289,3.549-7.197,6.225-11.407,6.225
			H52.357c-2.668,0-4.786-1.096-5.82-3.006s-0.79-4.291,0.673-6.518L74.8,286.746c1.071-1.639,1.077-4.627,0.012-6.266
			L50.35,242.719c-1.444-2.234-1.677-4.614-0.643-6.524c1.041-1.909,3.17-3.005,5.833-3.005h11.928
			c4.235,0,9.119,2.705,11.353,6.297l13.813,22.118c0.19,0.306,0.355,0.453,0.44,0.526c0.031-0.073,0.19-0.226,0.38-0.532
			l13.482-22.057c2.209-3.623,7.081-6.353,11.328-6.353h11.738c2.662,0,4.786,1.096,5.826,3.005c1.047,1.91,0.82,4.284-0.618,6.524
			l-24.645,38.477c-1.059,1.646-1.034,4.621,0.049,6.248l27.528,41.439C139.617,331.104,139.874,333.473,138.852,335.389z"/>
		<path d="M281.521,0c-51.114,0-92.693,41.58-92.693,92.694s41.579,92.693,92.693,92.693c51.115,0,92.693-41.579,92.693-92.693
			S332.636,0,281.521,0z M327.372,56.463l-30.301,47.834c-1.383,2.179-2.594,6.358-2.594,8.935v30.117
			c0,4.847-3.947,8.794-8.795,8.794h-8.488c-4.847,0-8.794-3.947-8.794-8.794v-30.251c0-2.583-1.206-6.756-2.589-8.935
			l-30.166-47.699c-1.414-2.252-1.634-4.633-0.582-6.536s3.183-2.999,5.833-2.999h11.989c4.26,0,9.113,2.76,11.292,6.42
			l17.46,29.357c0.116,0.184,0.214,0.325,0.3,0.41c0.037-0.092,0.128-0.22,0.239-0.404l17.093-29.315
			c2.148-3.69,6.99-6.469,11.262-6.469h11.598c2.662,0,4.785,1.096,5.832,3.005C329.019,51.836,328.804,54.217,327.372,56.463z"/>
	</g>
</g>
<g>
</g>
<g>
</g>
<g>
</g>
<g>
</g>
<g>
</g>
<g>
</g>
<g>
</g>
<g>
</g>
<g>
</g>
<g>
</g>
<g>
</g>
<g>
</g>
<g>
</g>
<g>
</g>
<g>
</g>
</svg>
