<?xml version="1.0" encoding="utf-8"?>
<!-- Generator: Adobe Illustrator 22.1.0, SVG Export Plug-In . SVG Version: 6.00 Build 0)  -->
<svg version="1.1" id="Layer_1" xmlns="http://www.w3.org/2000/svg" xmlns:xlink="http://www.w3.org/1999/xlink" x="0px" y="0px"
     viewBox="0 0 375 812" enable-background="new 0 0 375 812" xml:space="preserve">
<radialGradient id="SVGID_1_" cx="-236.0493" cy="-1.2587" r="1" gradientTransform="matrix(2.486033e-14 406 -187.5 1.148106e-14 -48.5 96242)" gradientUnits="userSpaceOnUse">
	<stop  offset="0" style="stop-color:#4E4E4E"/>
    <stop  offset="1" style="stop-color:#1B1305"/>
</radialGradient>
    <rect fill="url(#SVGID_1_)" width="375" height="812"/>
    <path fill="none" stroke="#9F8051" stroke-width="3" d="M340,267H35v131.5l8.5,15.4v99.2L184.9,566l144.9-58v-94.1l10.2-15.4V267z"
    />
    <text transform="matrix(1 0 0 1 58.8154 422.288)" fill="#9F8051" font-family="'TrajanPro3-Regular'" font-size="97.7866px">MK11</text>
    <text transform="matrix(1 0 0 1 111.2496 465.376)" fill="#9F8051" font-family="'TrajanPro3-Regular'" font-size="21px" letter-spacing="4">Reference</text>
    <path display="none" fill="#CC0000" d="M142.7,351c-0.2-1.8-0.5-2.6-1.2-2.6c-0.7,0-1.1,0.7-1.4,1.5l-28.2,60.3l-29.4-60.4
	c-0.5-1.1-0.9-1.4-1.4-1.4c-0.6,0-1,0.9-1.1,1.9l-6.9,62.4c-0.5,3.9-0.7,7.4-3.8,8c-1.4,0.3-2.1,0.3-2.9,0.3c-0.5,0-1,0.2-1,0.6
	c0,0.7,0.7,0.8,1.6,0.8c2.6,0,7.2-0.3,8.1-0.3c0.8,0,5.7,0.3,9.2,0.3c1,0,1.4-0.2,1.4-0.9c0-0.3-0.4-0.5-1-0.5c-0.6,0-1.8,0-3.5-0.4
	c-1.4-0.3-2.6-1.1-2.6-3.5c0-1.6,0.1-3,0.2-4.5l3.9-45.2c1.1,2.6,12.1,26.3,13,28c0.5,1,8.7,17.6,11.2,22.3c1.8,3.5,2.3,4.4,3,4.4
	c0.9,0,1.2-0.9,3.2-5.1l23.8-50.5l4.6,50.1c0.2,1.7,0.3,3.2-0.4,3.5c-0.5,0.2-0.7,0.3-0.7,0.7c0,0.5,0.5,0.8,2.7,1
	c3.6,0.3,14.5,0.6,16.6,0.6c1.2,0,1.4-0.2,1.4-0.8c0-0.5-0.6-0.6-1.1-0.6c-1,0-3.2,0-6-0.9c-4.1-1.3-4.8-6.7-5.2-10.2L142.7,351z
	 M186.6,377.6c0-15,0-17.7,0.2-20.7c0.2-3.4,1-5.3,3.6-5.6c1-0.1,1.1-0.1,2.1-0.2c0.9-0.1,1.1-0.3,1.1-0.7c0-0.5-0.5-0.7-1.5-0.7
	c-2.9,0-8.9,0.3-9.4,0.3c-0.5,0-6.9-0.3-10.1-0.3c-1.1,0-1.5,0.2-1.5,0.8c0,0.4,0.3,0.6,1.1,0.6c0.7,0,2.4,0.1,3.5,0.4
	c2.1,0.5,3.1,2.1,3.3,5.4c0.2,3.1,0.2,5.8,0.2,20.7v16.9c0,9.2,0,16.8-0.5,20.8c-0.4,2.8-1,5-2.9,5.4c-0.9,0.2-1.9,0.3-2.5,0.3
	c-0.9,0-1.1,0.4-1.1,0.7c0,0.6,0.5,0.7,1.5,0.7c2.9,0,8.5-0.3,9-0.3c0.5,0,6.5,0.3,11.8,0.3c1.1,0,1.4-0.2,1.4-0.7
	c0-0.3-0.3-0.7-1.2-0.7c-0.6,0-2.5-0.2-3.8-0.4c-2.9-0.4-3.5-2.5-3.7-5.3c-0.5-4-0.5-11.6-0.5-20.8v-9.9
	c8.4,10.1,25.7,28.6,31.5,33.1c4.5,3.6,6.7,4.6,15.1,4.6h7.1c1.1,0,1.4-0.2,1.4-0.7s-0.6-0.7-1.3-0.7c-1,0-1.9-0.1-2.8-0.3
	c-4.6-0.9-8-3-15.8-10.4c-4.5-4.2-22-22-28-28.6c2.5-2.8,13.4-13.6,21.9-21.8c5.8-5.6,7.6-6.7,10-7.7c1.3-0.6,3.1-1,4.9-1.2
	c0.9-0.1,1.1-0.3,1.1-0.7s-0.3-0.7-1.6-0.7c-1.5,0-7.2,0.3-10.2,0.3c-3.3,0-3-0.3-5.8-0.3c-0.9,0-1.4,0.2-1.4,0.6s0.2,0.6,0.9,0.9
	c0.8,0.3,1.2,1.1,1.2,1.8c0,1.2-0.4,2.1-6.1,8.1c-5.9,6-18.9,19.8-21.9,22.7V377.6z M253.1,393.1c0,9.6,0,17.6-0.3,21.8
	c-0.3,3.7-1.1,5.4-4.6,5.7c-1.1,0.1-2.1,0.3-3.6,0.3c-1,0-1.3,0.4-1.3,0.8c0,0.5,0.6,0.7,1.6,0.7c6.1,0,11.3-0.3,11.8-0.3
	c0.5,0,3.7,0.3,10.9,0.3c1.2,0,1.6-0.2,1.6-0.7c0-0.6-0.6-0.9-1.5-1c-0.7-0.1-1.4-0.2-2.6-0.3c-3.2-0.3-3.8-1.9-4-4.9
	c-0.3-4.2-0.5-12.8-0.5-22.4c0-21.9,0.6-42.4,0.6-42.7c0-1,0-2-0.8-2c-0.7,0-1.4,0.6-2.3,1.2c-6.1,4.1-9.8,6.3-15.9,10.5
	c-0.4,0.3-0.7,0.7-0.7,1c0,0.4,0.6,0.5,0.9,0.5c0.5,0,6.9-3,9.3-3c1.2,0,1.4,1.2,1.4,3.1V393.1z M292,393.1c0,9.6,0,17.6-0.3,21.8
	c-0.3,3.7-1.1,5.4-4.6,5.7c-1.1,0.1-2.1,0.3-3.6,0.3c-1,0-1.3,0.4-1.3,0.8c0,0.5,0.6,0.7,1.6,0.7c6.1,0,11.3-0.3,11.8-0.3
	c0.5,0,3.7,0.3,10.9,0.3c1.2,0,1.6-0.2,1.6-0.7c0-0.6-0.6-0.9-1.5-1c-0.7-0.1-1.4-0.2-2.6-0.3c-3.2-0.3-3.8-1.9-4-4.9
	c-0.3-4.2-0.5-12.8-0.5-22.4c0-21.9,0.6-42.4,0.6-42.7c0-1,0-2-0.8-2c-0.7,0-1.4,0.6-2.3,1.2c-6.1,4.1-9.8,6.3-15.9,10.5
	c-0.4,0.3-0.7,0.7-0.7,1c0,0.4,0.6,0.5,0.9,0.5c0.5,0,6.9-3,9.3-3c1.2,0,1.4,1.2,1.4,3.1V393.1z M101,468.4c1.5,0,3.4-0.2,4.3-0.6
	c0.4-0.2,0.5-0.2,0.6-0.7c0.2-0.8,0.5-2.9,0.5-3.1c0-0.2,0-0.4-0.2-0.4c-0.1,0-0.2,0.1-0.2,0.4c-0.1,0.4-0.4,1.5-0.9,2
	c-1,1-2.4,1.2-4.2,1.2c-5.1,0-8.7-4.2-8.7-8.8c0-2.4,0.4-4.6,2.2-6.3c0.8-0.8,2.3-1.8,5.5-1.8c2.1,0,4,0.6,4.8,1.4
	c0.6,0.5,1,1.5,1,2.4c0,0.3,0,0.5,0.2,0.5c0.1,0,0.2-0.1,0.2-0.5c0-0.4,0-1.7,0.1-2.5c0-0.9,0.1-1.2,0.1-1.3c0-0.1,0-0.2-0.2-0.3
	c-0.9-0.1-1.6-0.2-2.5-0.4c-1.2-0.2-2.5-0.3-3.5-0.3c-3.7,0-5.9,1.1-7.3,2.6c-2.1,2.1-2.7,4.9-2.7,6.6c0,2.3,0.6,5,2.9,7.1
	C94.9,467.5,97.4,468.4,101,468.4z M126.3,456.9c0-3.7,0-4.4,0-5.2c0-1.1,0.3-1.2,0.9-1.3c0.2,0,0.3,0,0.5-0.1
	c0.2,0,0.3-0.1,0.3-0.2c0-0.1,0-0.1-0.4-0.1c-0.5,0-2.4,0.1-2.5,0.1H113c-0.4,0-1.7-0.1-2.6-0.1c-0.3,0-0.4,0-0.4,0.1
	c0,0.1,0.1,0.2,0.3,0.2c0.2,0,0.5,0,0.7,0.1c0.7,0.1,1,0.5,1,1.4c0,0.8,0,1.4,0,5.1v4.3c0,2.3,0,3.9-0.1,4.9c0,1-0.3,1.5-0.8,1.6
	c-0.3,0-0.3,0-0.5,0.1c-0.3,0-0.3,0.1-0.3,0.2c0,0.1,0.2,0.1,0.4,0.1c0.7,0,2-0.1,2.2-0.1c0.1,0,2,0.1,3,0.1c0.3,0,0.4-0.1,0.4-0.1
	c0-0.1-0.1-0.2-0.4-0.2c-0.2,0-0.6,0-1-0.1c-0.7-0.1-0.9-0.6-0.9-1.5c-0.1-1-0.1-2.7-0.1-5v-9.7c0-0.4,0.1-0.4,0.4-0.5
	c0.3,0,0.9,0,4.5,0c3.6,0,4.8,0,5.2,0c0.1,0,0.1,0.1,0.1,0.2v9.8c0,2.3,0,4.3-0.1,5.4c-0.1,1.1-0.4,1.3-0.8,1.4
	c-0.2,0-0.3,0-0.5,0.1c-0.3,0-0.4,0.1-0.4,0.2c0,0.1,0,0.2,0.4,0.2c0.7,0,2.1-0.1,2.3-0.1c0.2,0,1.9,0.1,3.1,0.1
	c0.2,0,0.3-0.1,0.3-0.2c0-0.1,0-0.1-0.3-0.2c-0.3,0-0.6,0-0.9-0.1c-0.7-0.1-0.9-0.5-1-1.4c-0.1-1-0.1-2.8-0.1-5.1V456.9z M135,461.1
	c0,2.3,0,4.2-0.1,5.2c-0.1,0.7-0.2,1.2-0.7,1.3c-0.2,0-0.5,0.1-0.7,0.1c-0.1,0-0.2,0.1-0.2,0.1c0,0.1,0.1,0.2,0.4,0.2
	c0.7,0,2.2-0.1,2.3-0.1c0.1,0,1.6,0.1,3,0.1c0.3,0,0.4-0.1,0.4-0.2c0-0.1,0-0.1-0.2-0.1c-0.2,0-0.7,0-1.1-0.1
	c-0.7-0.1-0.9-0.6-0.9-1.3c-0.1-1-0.1-2.9-0.1-5.2v-9.9c0-0.2,0-0.4,0.2-0.5c0.2-0.1,0.6-0.1,1-0.1c0.6,0,2-0.1,3.3,1.2
	c1.3,1.3,1.3,2.9,1.3,3.5c0,2.5-1.8,4.1-4.2,4.1c-0.5,0-0.6,0-0.6,0.2c0,0.1,0.1,0.2,0.3,0.2c0.1,0,0.4,0,0.5,0
	c3.4,0,5.9-2.3,5.9-5.4c0-1.6-0.7-2.6-1.2-3.1c-0.4-0.4-1.5-1.4-4.5-1.4c-1.1,0-2.5,0.1-3,0.1c-0.2,0-1.6-0.1-2.7-0.1
	c-0.3,0-0.4,0-0.4,0.2c0,0.1,0.1,0.1,0.2,0.1c0.2,0,0.6,0,0.8,0.1c0.8,0.2,1,0.6,1,1.4c0,0.8,0,1.4,0,5.2V461.1z M157.1,461
	c0.1,0,0.2,0,0.2,0.1l2.2,5.9c0.1,0.4,0,0.6-0.1,0.6c-0.1,0-0.2,0.1-0.2,0.2c0,0.1,0.3,0.1,0.7,0.2c1.7,0,3.4,0,3.8,0
	c0.3,0,0.5,0,0.5-0.2c0-0.1-0.1-0.1-0.3-0.1c-0.2,0-0.6,0-0.9-0.1c-0.5-0.1-1.2-0.5-2.1-2.7c-1.5-3.6-5.2-13.6-5.6-14.5
	c-0.3-0.7-0.4-0.9-0.5-0.9s-0.2,0.1-0.5,0.9l-5.4,14.9c-0.4,1.2-0.9,2.1-2,2.3c-0.2,0-0.4,0-0.6,0c-0.2,0-0.3,0-0.3,0.1
	c0,0.1,0.1,0.2,0.5,0.2c1.1,0,2.4-0.1,2.7-0.1c0.3,0,1.2,0.1,1.8,0.1c0.2,0,0.4,0,0.4-0.2c0-0.1-0.1-0.1-0.3-0.1c-0.1,0-0.1,0-0.2,0
	c-0.4,0-0.9-0.2-0.9-0.7c0-0.4,0.1-1,0.3-1.6l1.4-4.2c0-0.1,0.1-0.2,0.2-0.2H157.1z M152.2,460.1c-0.1,0-0.1,0-0.1-0.2l2.1-6.5
	c0.1-0.4,0.2-0.4,0.4,0l2.3,6.5c0,0.1,0,0.2-0.1,0.2H152.2z M167.8,461.1c0,2.3,0,4.2-0.1,5.2c-0.1,0.7-0.2,1.2-0.7,1.3
	c-0.2,0-0.4,0.1-0.6,0.1c-0.3,0-0.4,0.1-0.4,0.2c0,0.1,0.1,0.2,0.4,0.2c0.8,0,1.6-0.1,2.4-0.1c0.1,0,0.8,0,1.5,0.1
	c0.7,0,1.5,0.1,1.7,0.1c4.1,0,6.1-2.7,6.1-5.2c0-2.8-2.4-4.5-4.2-5.1c1.1-1.2,2.3-2.4,2.3-4.3c0-1.2-0.9-3.6-4.8-3.6
	c-1.1,0-2,0.1-2.6,0.1c-0.1,0-1.6-0.1-2.7-0.1c-0.3,0-0.4,0-0.4,0.2c0,0.1,0.1,0.1,0.3,0.1c0.1,0,0.5,0,0.7,0.1c0.8,0.2,1,0.6,1,1.4
	c0,0.8,0,1.4,0,5.2V461.1z M169.7,451c0-0.1,0.1-0.2,0.3-0.3c0.4-0.1,0.9-0.1,1.2-0.1c2.4,0,3.2,2.1,3.2,4.1c0,1-0.4,1.8-0.9,2.4
	c-0.5,0.6-0.8,0.6-2.2,0.6c-0.9,0-1.3-0.1-1.5-0.1c-0.1,0-0.2-0.1-0.2-0.3V451z M169.7,458.6c0-0.1,0-0.2,0.1-0.2c0.4,0,1.6,0,1.9,0
	c0.6,0.1,1.2,0.1,2,0.7c1.8,1.3,2.3,3.4,2.3,4.8c0,2.7-2.1,3.4-3.4,3.4c-0.4,0-1.5,0-2.1-0.4c-0.7-0.4-0.7-0.7-0.8-1.9
	c0-0.4,0-3.3,0-5.2V458.6z M191.3,468.4c5.8,0,9.6-4.4,9.6-9.8c0-5.6-4-9-9.4-9c-6.6,0-9.5,5.5-9.5,9.4
	C182,463.3,184.8,468.4,191.3,468.4z M192,467.5c-4.3,0-7.7-3.6-7.7-9.2c0-5.3,3-7.9,7-7.9c3.8,0,7.3,3.1,7.3,8.9
	C198.6,466.2,194.1,467.5,192,467.5z M216.9,456.9c0-3.7,0-4.4,0-5.2c0-0.8,0.2-1.2,0.9-1.4c0.3,0,0.4-0.1,0.6-0.1
	c0.1,0,0.2,0,0.2-0.1c0-0.1-0.1-0.2-0.4-0.2c-0.7,0-2.2,0.1-2.4,0.1c-0.1,0-1.6-0.1-2.7-0.1c-0.3,0-0.4,0-0.4,0.2
	c0,0.1,0.1,0.1,0.3,0.1c0.1,0,0.6,0,0.7,0.1c0.8,0.2,1,0.6,1,1.4c0,0.8,0,1.3,0,4.8v1.7c-0.9,0.4-2.1,0.5-3.1,0.5
	c-2.5,0-4.2-1.3-4.2-4.1c0-0.9,0-2,0-2.8c0-1.2,0.4-1.4,1.2-1.5c0.3,0,0.4-0.1,0.4-0.2c0-0.1-0.1-0.2-0.4-0.2c-0.5,0-2,0.1-2.4,0.1
	c-0.3,0-1.4-0.1-2.3-0.1c-0.3,0-0.4,0-0.4,0.1c0,0,0,0.1,0.3,0.2c0.3,0,0.4,0,0.6,0c0.6,0.1,0.8,0.4,0.9,1.3c0,0.8,0,1.6,0,2.6
	c0,2.4,0.5,3.2,1,3.7c0.9,1.1,2.4,1.7,4.5,1.7c1.3,0,2.7-0.2,3.8-0.7v2.1c0,2.4,0,4.3-0.1,5.3c-0.1,0.7-0.2,1.2-0.7,1.3
	c-0.2,0-0.5,0.1-0.7,0.1c-0.1,0-0.2,0.1-0.2,0.1c0,0.1,0.1,0.2,0.4,0.2c0.7,0,2.2-0.1,2.4-0.1c0.1,0,1.6,0.1,3,0.1
	c0.3,0,0.4-0.1,0.4-0.2c0-0.1,0-0.1-0.2-0.1c-0.2,0-0.7,0-1.1-0.1c-0.7-0.1-0.9-0.6-0.9-1.3c-0.1-1-0.1-2.9-0.1-5.2V456.9z
	 M227.8,457.5c-0.1,0-0.1,0-0.1-0.1v-0.5c0-3.7,0-4.4,0-5.2c0-0.8,0.2-1.2,0.9-1.4c0.3,0,0.4-0.1,0.6-0.1c0.1,0,0.2,0,0.2-0.1
	c0-0.1-0.1-0.2-0.4-0.2c-0.7,0-2.2,0.1-2.4,0.1c-0.1,0-1.6-0.1-2.7-0.1c-0.3,0-0.4,0-0.4,0.2c0,0.1,0.1,0.1,0.2,0.1
	c0.2,0,0.6,0,0.8,0.1c0.8,0.2,1,0.6,1,1.4c0,0.8,0,1.4,0,5.2v4.2c0,2.3,0,4.2-0.1,5.2c-0.1,0.7-0.2,1.2-0.7,1.3
	c-0.2,0-0.5,0.1-0.7,0.1c-0.1,0-0.2,0.1-0.2,0.1c0,0.1,0.1,0.2,0.4,0.2c0.7,0,2.2-0.1,2.4-0.1c0.1,0,1.6,0.1,3,0.1
	c0.3,0,0.4-0.1,0.4-0.2c0-0.1,0-0.1-0.2-0.1c-0.2,0-0.7,0-1.1-0.1c-0.7-0.1-0.9-0.6-0.9-1.3c-0.1-1-0.1-2.9-0.1-5.2v-2.5
	c0-0.1,0.1-0.1,0.1-0.1H238c0.1,0,0.1,0,0.1,0.1v2.5c0,2.3,0,4.2-0.1,5.2c-0.1,0.7-0.2,1.2-0.7,1.3c-0.2,0-0.5,0.1-0.7,0.1
	c-0.1,0-0.2,0.1-0.2,0.1c0,0.1,0.1,0.2,0.4,0.2c0.7,0,2.2-0.1,2.4-0.1c0.1,0,1.6,0.1,3,0.1c0.3,0,0.4-0.1,0.4-0.2
	c0-0.1,0-0.1-0.2-0.1c-0.2,0-0.7,0-1.1-0.1c-0.7-0.1-0.9-0.6-0.9-1.3c-0.1-1-0.1-2.9-0.1-5.2v-4.2c0-3.7,0-4.4,0-5.2
	c0-0.8,0.2-1.2,0.9-1.4c0.3,0,0.4-0.1,0.6-0.1c0.1,0,0.2,0,0.2-0.1c0-0.1-0.1-0.2-0.4-0.2c-0.7,0-2.2,0.1-2.4,0.1
	c-0.1,0-1.6-0.1-2.7-0.1c-0.3,0-0.4,0-0.4,0.2c0,0.1,0.1,0.1,0.2,0.1c0.2,0,0.6,0,0.8,0.1c0.8,0.2,1,0.6,1,1.4c0,0.8,0,1.4,0,5.2
	v0.5c0,0.1-0.1,0.1-0.1,0.1H227.8z M250.2,452.8c0-2,0.2-2.3,0.9-2.4c0.2,0,0.3,0,0.6-0.1c0.3,0,0.3-0.1,0.3-0.2
	c0-0.1-0.1-0.1-0.4-0.1c-0.7,0-1.6,0.1-2.4,0.1c-0.4,0-1.9-0.1-2.6-0.1c-0.3,0-0.5,0-0.5,0.2c0,0.1,0.1,0.1,0.3,0.2
	c0.2,0,0.5,0,0.8,0.1c0.8,0.1,1,0.3,1.1,3c0.1,4.6,0,10,0,14c0,1,0.1,1.2,0.3,1.2c0.1,0,0.4-0.1,0.9-0.7c1-1.1,11-13.5,12.3-15.1
	c0,4.1,0,8.1-0.1,12c0,1.8-0.1,2.8-0.8,3c-0.2,0-0.5,0.1-0.7,0.1c-0.3,0-0.4,0.1-0.4,0.2c0,0.1,0.1,0.1,0.4,0.1
	c0.9,0,1.6-0.1,2.2-0.1c0.4,0,2.5,0.1,3.4,0.1c0.3,0,0.4,0,0.4-0.2c0-0.1-0.1-0.1-0.4-0.2c-0.4,0-0.8-0.1-0.9-0.1
	c-0.8-0.1-1-0.8-1-2.5c-0.1-4.5-0.1-8.8-0.1-13.2c0-2.1-0.1-2.3-0.4-2.3c-0.3,0-0.7,0.4-1.6,1.5c-2.4,2.9-8.5,10.6-11.5,14.2
	L250.2,452.8z M273.6,456.9c0-3.7,0-4.4,0-5.2c0-0.8,0.2-1.3,0.9-1.4c0.2,0,0.3,0,0.5,0c0.2,0,0.3-0.1,0.3-0.2
	c0-0.1-0.1-0.2-0.4-0.2c-0.7,0-2.2,0.1-2.4,0.1s-1.7-0.1-2.5-0.1c-0.3,0-0.4,0-0.4,0.2c0,0.1,0.1,0.1,0.3,0.1c0.2,0,0.6,0,0.9,0.1
	c0.5,0.1,0.8,0.5,0.8,1.3c0,0.8,0,1.4,0,5.2v4.2c0,2.3,0,4.2-0.1,5.2c-0.1,0.7-0.2,1.2-0.7,1.3c-0.2,0-0.5,0.1-0.6,0.1
	c-0.2,0-0.3,0.1-0.3,0.2c0,0.1,0.1,0.2,0.4,0.2c0.7,0,2.1-0.1,2.3-0.1s1.6,0.1,3,0.1c0.3,0,0.4,0,0.4-0.2c0-0.1-0.1-0.2-0.3-0.2
	c-0.1,0-0.6,0-1-0.1c-0.7-0.1-0.9-0.6-0.9-1.3c-0.1-1-0.1-2.9-0.1-5.2v-2.5c2.1,2.5,6.4,7.2,7.9,8.3c1.1,0.9,1.7,1.2,3.8,1.2h1.8
	c0.3,0,0.4,0,0.4-0.2s-0.1-0.2-0.3-0.2c-0.2,0-0.5,0-0.7-0.1c-1.2-0.2-2-0.7-4-2.6c-1.1-1.1-5.5-5.5-7-7.2c0.6-0.7,3.4-3.4,5.5-5.4
	c1.4-1.4,1.9-1.7,2.5-1.9c0.3-0.1,0.8-0.2,1.2-0.3c0.2,0,0.3-0.1,0.3-0.2c0-0.1-0.1-0.2-0.4-0.2c-0.4,0-1.8,0.1-2.5,0.1
	c-0.8,0-0.7-0.1-1.4-0.1c-0.2,0-0.4,0-0.4,0.1c0,0.1,0,0.1,0.2,0.2c0.2,0.1,0.3,0.3,0.3,0.5c0,0.3-0.1,0.5-1.5,2
	c-1.5,1.5-4.7,4.9-5.5,5.7V456.9z"/>
</svg>
