<?xml version="1.0" encoding="utf-8"?>
<!-- Generator: Adobe Illustrator 22.1.0, SVG Export Plug-In . SVG Version: 6.00 Build 0)  -->
<svg version="1.1" id="Layer_1" xmlns="http://www.w3.org/2000/svg" xmlns:xlink="http://www.w3.org/1999/xlink" x="0px"
     y="0px"
     width="375px" height="372px" viewBox="0 0 375 372" enable-background="new 0 0 375 372" xml:space="preserve">
<path fill="none" stroke="#9F8051" stroke-width="3"
      d="M340,47H35v131.5l8.5,15.4v99.2L184.9,346l144.9-58v-94.1l10.2-15.4V47z"/>
    <g enable-background="new    ">
	<path fill="#9F8051" d="M149,190c0.4,3.5,1.1,9,5.3,10.4c2.8,0.9,5.1,0.9,6.1,0.9c0.5,0,1.1,0.1,1.1,0.6c0,0.6-0.3,0.8-1.5,0.8
		c-2.2,0-13.3-0.3-16.9-0.6c-2.2-0.2-2.7-0.5-2.7-1c0-0.4,0.2-0.5,0.7-0.7c0.7-0.3,0.6-1.8,0.4-3.5l-4.7-51l-24.3,51.4
		c-2.1,4.3-2.3,5.2-3.2,5.2c-0.7,0-1.2-1-3-4.5c-2.5-4.8-11-21.7-11.4-22.7c-0.9-1.8-12.1-25.9-13.2-28.6l-4,46.1
		c-0.1,1.6-0.2,2.9-0.2,4.6c0,2.4,1.2,3.2,2.6,3.5c1.7,0.4,2.9,0.4,3.5,0.4s1,0.2,1,0.5c0,0.7-0.5,0.9-1.5,0.9
		c-3.6,0-8.6-0.3-9.4-0.3c-0.9,0-5.6,0.3-8.2,0.3c-1,0-1.7-0.1-1.7-0.8c0-0.4,0.5-0.6,1-0.6c0.8,0,1.5,0,2.9-0.3
		c3.2-0.6,3.4-4.1,3.9-8.1l7-63.6c0.1-1.1,0.5-2,1.1-2s1,0.4,1.5,1.5l29.9,61.5l28.8-61.4c0.4-0.9,0.8-1.6,1.5-1.6s1,0.8,1.2,2.6
		L149,190z"/>
        <path fill="#9F8051" d="M186.7,163.3c3-2.9,16.3-16.9,22.3-23.1c5.9-6.1,6.3-7,6.3-8.2c0-0.8-0.5-1.6-1.3-1.9
		c-0.7-0.3-0.9-0.5-0.9-0.9s0.6-0.6,1.5-0.6c2.8,0,2.5,0.3,5.9,0.3c3,0,8.8-0.3,10.4-0.3c1.4,0,1.7,0.3,1.7,0.7
		c0,0.4-0.2,0.6-1.1,0.7c-1.9,0.2-3.6,0.6-5,1.2c-2.4,1-4.3,2.2-10.2,7.8c-8.6,8.3-19.8,19.4-22.3,22.2c6.2,6.7,24,24.8,28.6,29.1
		c8,7.5,11.4,9.7,16.1,10.6c0.9,0.2,1.9,0.3,2.8,0.3c0.8,0,1.4,0.2,1.4,0.7c0,0.5-0.4,0.7-1.5,0.7h-7.2c-8.5,0-10.8-1.1-15.4-4.7
		c-5.9-4.6-23.5-23.5-32.1-33.7v10.1c0,9.4,0,17.1,0.5,21.2c0.3,2.8,0.9,5,3.8,5.4c1.4,0.2,3.3,0.4,3.9,0.4c0.9,0,1.2,0.4,1.2,0.7
		c0,0.5-0.4,0.7-1.5,0.7c-5.4,0-11.5-0.3-12-0.3c-0.5,0-6.3,0.3-9.2,0.3c-1.1,0-1.6-0.1-1.6-0.7c0-0.3,0.2-0.7,1.1-0.7
		c0.6,0,1.7-0.1,2.5-0.3c2-0.4,2.5-2.6,2.9-5.5c0.5-4.1,0.5-11.8,0.5-21.2V157c0-15.3,0-18-0.2-21.1c-0.2-3.3-1.2-5-3.3-5.5
		c-1.1-0.3-2.8-0.4-3.5-0.4c-0.8,0-1.1-0.2-1.1-0.6c0-0.6,0.5-0.8,1.6-0.8c3.2,0,9.8,0.3,10.3,0.3c0.5,0,6.6-0.3,9.6-0.3
		c1.1,0,1.6,0.2,1.6,0.7c0,0.4-0.2,0.6-1.1,0.7c-1.1,0.1-1.2,0.1-2.2,0.2c-2.6,0.3-3.4,2.2-3.6,5.7c-0.2,3.1-0.2,5.9-0.2,21.1V163.3
		z"/>
        <path fill="#9F8051" d="M254,140.7c0-2-0.2-3.1-1.5-3.1c-2.4,0-9,3-9.5,3c-0.3,0-0.9-0.1-0.9-0.5c0-0.3,0.3-0.7,0.7-1
		c6.3-4.2,10-6.5,16.2-10.7c0.9-0.6,1.7-1.2,2.3-1.2c0.8,0,0.8,1.1,0.8,2.1c0,0.3-0.6,21.2-0.6,43.5c0,9.8,0.2,18.5,0.5,22.8
		c0.2,3,0.9,4.7,4.1,5c1.2,0.1,2,0.2,2.6,0.3c1,0.1,1.6,0.4,1.6,1c0,0.5-0.5,0.7-1.7,0.7c-7.3,0-10.7-0.3-11.1-0.3
		c-0.5,0-5.8,0.3-12,0.3c-1.1,0-1.7-0.2-1.7-0.7c0-0.4,0.4-0.8,1.4-0.8c1.6,0,2.6-0.2,3.7-0.3c3.6-0.3,4.4-2,4.7-5.8
		c0.3-4.3,0.3-12.4,0.3-22.2V140.7z"/>
        <path fill="#9F8051" d="M293.2,140.7c0-2-0.2-3.1-1.5-3.1c-2.4,0-9,3-9.5,3c-0.3,0-0.9-0.1-0.9-0.5c0-0.3,0.3-0.7,0.7-1
		c6.3-4.2,10-6.5,16.2-10.7c0.9-0.6,1.7-1.2,2.3-1.2c0.8,0,0.8,1.1,0.8,2.1c0,0.3-0.6,21.2-0.6,43.5c0,9.8,0.2,18.5,0.5,22.8
		c0.2,3,0.9,4.7,4.1,5c1.2,0.1,2,0.2,2.6,0.3c1,0.1,1.6,0.4,1.6,1c0,0.5-0.5,0.7-1.7,0.7c-7.3,0-10.7-0.3-11.1-0.3
		c-0.5,0-5.8,0.3-12,0.3c-1.1,0-1.7-0.2-1.7-0.7c0-0.4,0.4-0.8,1.4-0.8c1.6,0,2.6-0.2,3.7-0.3c3.6-0.3,4.4-2,4.7-5.8
		c0.3-4.3,0.3-12.4,0.3-22.2V140.7z"/>
</g>
    <path fill="#9F8051" d="M115,235.7c0-3.3,0-3.9,0-4.5c0-0.7-0.2-1.1-0.9-1.2c-0.2,0-0.5-0.1-0.7-0.1c-0.1,0-0.2,0-0.2-0.1
	c0-0.1,0.1-0.2,0.3-0.2c0.9,0,2.3,0.1,2.4,0.1c0.2,0,1.8-0.1,2.5-0.1c1.3,0,2.7,0.1,3.8,0.9c0.5,0.4,1.4,1.4,1.4,2.9
	c0,1.6-0.7,3.1-2.5,4.9c1.7,2.2,3.1,4.1,4.4,5.4c1.1,1.2,2,1.4,2.6,1.5c0.4,0.1,0.7,0.1,0.8,0.1c0.1,0,0.2,0.1,0.2,0.1
	c0,0.1-0.1,0.2-0.5,0.2H127c-1.2,0-1.7-0.1-2.2-0.4c-0.9-0.5-1.6-1.5-2.8-3.1c-0.9-1.2-1.9-2.6-2.3-3.1c-0.1-0.1-0.1-0.1-0.3-0.1
	l-2.6,0c-0.1,0-0.1,0.1-0.1,0.2v0.5c0,2,0,3.7,0.1,4.6c0.1,0.6,0.2,1.1,0.8,1.2c0.3,0,0.8,0.1,0.9,0.1c0.1,0,0.2,0.1,0.2,0.1
	c0,0.1-0.1,0.2-0.3,0.2c-1.2,0-2.5-0.1-2.6-0.1c0,0-1.3,0.1-2,0.1c-0.2,0-0.3,0-0.3-0.2c0-0.1,0-0.1,0.2-0.1c0.2,0,0.4,0,0.6-0.1
	c0.4-0.1,0.5-0.5,0.6-1.2c0.1-0.9,0.1-2.5,0.1-4.6V235.7z M116.7,237.5c0,0.1,0,0.2,0.1,0.3c0.3,0.2,1.3,0.3,2.2,0.3
	c0.5,0,1.1-0.1,1.6-0.4c0.7-0.5,1.3-1.6,1.3-3.2c0-2.6-1.4-4.2-3.6-4.2c-0.6,0-1.2,0.1-1.4,0.1c-0.1,0-0.2,0.1-0.2,0.3V237.5z"/>
    <path fill="#9F8051" d="M133.8,237.1c0-2.8,0-3.3,0-3.8c0-0.6-0.2-0.9-0.8-1c-0.1,0-0.3,0-0.5,0c-0.1,0-0.3-0.1-0.3-0.1
	c0-0.1,0.1-0.2,0.3-0.2c0.4,0,1,0,2.2,0.1c0.1,0,3.8,0,4.3,0s0.7,0,0.8-0.1c0.1,0,0.1-0.1,0.2-0.1c0,0,0.1,0,0.1,0.1
	c0,0.1-0.1,0.4-0.2,0.9c0,0.4,0,0.7-0.1,1.1c0,0.2,0,0.3-0.1,0.3s-0.1-0.1-0.1-0.2c0-0.3-0.1-0.5-0.1-0.7c-0.1-0.4-0.3-0.6-1.4-0.6
	c-0.3,0-2.4,0-2.4,0c-0.1,0-0.1,0-0.1,0.2v4.8c0,0.1,0,0.2,0.1,0.2c0.3,0,2.4,0,2.8-0.1c0.5,0,0.8-0.1,1-0.3
	c0.1-0.1,0.1-0.2,0.2-0.2c0,0,0.1,0,0.1,0.1c0,0.1-0.1,0.5-0.1,1.1c-0.1,0.6-0.1,1-0.1,1.3c0,0.2-0.1,0.2-0.1,0.2
	c-0.1,0-0.1-0.1-0.1-0.3c0-0.1,0-0.3-0.1-0.5c-0.1-0.3-0.2-0.6-1-0.6c-0.5,0-2.2-0.1-2.5-0.1c-0.1,0-0.1,0.1-0.1,0.1v1.5
	c0,0.7,0,2.5,0,2.9c0,0.8,0.1,1.2,0.6,1.4c0.3,0.1,0.8,0.2,1.5,0.2c0.4,0,1.1,0,1.6-0.1c0.6-0.2,0.8-0.6,0.9-1.4
	c0-0.2,0.1-0.3,0.2-0.3c0.1,0,0.1,0.2,0.1,0.3c0,0.1-0.2,1.5-0.2,1.8c-0.1,0.4-0.2,0.5-0.9,0.5c-1.4,0-2,0-2.7,0
	c-0.7,0-1.7-0.1-2.5-0.1c-0.5,0-0.9,0.1-1.4,0.1c-0.2,0-0.3,0-0.3-0.1c0-0.1,0.1-0.1,0.2-0.1c0.1,0,0.3,0,0.4-0.1
	c0.4-0.1,0.6-0.4,0.7-1.7c0-0.7,0-1.6,0-3.2V237.1z"/>
    <path fill="#9F8051" d="M148.8,237.1c0-2.8,0-3.3,0-3.8c0-0.6-0.1-0.9-0.8-1c-0.2,0-0.3,0-0.5,0c-0.2,0-0.3-0.1-0.3-0.2
	c0-0.1,0.1-0.1,0.3-0.1c0.8,0,1.4,0.1,2.1,0.1c0.3,0,4.1,0,4.6,0c0.4,0,0.7-0.1,0.9-0.1c0.1,0,0.2-0.1,0.2-0.1
	c0.1,0,0.1,0.1,0.1,0.2c0,0.1-0.1,0.4-0.1,0.7c-0.1,0.5-0.1,0.9-0.1,1.5c0,0.2-0.1,0.3-0.1,0.3c-0.1,0-0.1-0.1-0.2-0.3
	c0-0.2-0.1-0.8-0.3-1.1c-0.3-0.3-0.7-0.3-1.2-0.3c-0.9,0-1.7,0-2.6,0c-0.1,0-0.2,0-0.2,0.2v4.7c0,0.1,0,0.2,0.1,0.2
	c0.9,0,1.9,0,2.6,0c0.9,0,1.1-0.1,1.4-0.4c0.1-0.1,0.1-0.2,0.2-0.2c0.1,0,0.1,0.1,0.1,0.2c0,0.1-0.1,0.5-0.1,1.1
	c-0.1,0.6-0.1,0.9-0.1,1.2c0,0.2,0,0.3-0.1,0.3c-0.1,0-0.1-0.1-0.1-0.3c0-0.3-0.1-1-1.1-1.1c-0.4-0.1-2.3-0.1-2.6-0.1
	c-0.1,0-0.1,0-0.1,0.2v1.5c0,1.4,0,2.7,0,3.5c0,1,0.2,1.2,0.8,1.3c0.3,0,0.5,0.1,0.7,0.1c0.2,0,0.3,0.1,0.3,0.1s-0.1,0.1-0.3,0.1
	c-1.1,0-2.2-0.1-2.3-0.1h-0.1c-0.4,0-1.3,0.1-1.7,0.1c-0.2,0-0.3,0-0.3-0.1c0-0.1,0-0.1,0.2-0.1c0.2,0,0.3,0,0.4,0
	c0.5-0.1,0.5-0.4,0.6-1.2c0.1-0.8,0.1-2,0.1-3.7V237.1z"/>
    <path fill="#9F8051" d="M163.6,237.1c0-2.8,0-3.3,0-3.8c0-0.6-0.2-0.9-0.8-1c-0.1,0-0.3,0-0.5,0c-0.1,0-0.3-0.1-0.3-0.1
	c0-0.1,0.1-0.2,0.3-0.2c0.4,0,1,0,2.2,0.1c0.1,0,3.8,0,4.3,0s0.7,0,0.8-0.1c0.1,0,0.1-0.1,0.2-0.1c0,0,0.1,0,0.1,0.1
	c0,0.1-0.1,0.4-0.2,0.9c0,0.4,0,0.7-0.1,1.1c0,0.2,0,0.3-0.1,0.3s-0.1-0.1-0.1-0.2c0-0.3-0.1-0.5-0.1-0.7c-0.1-0.4-0.3-0.6-1.4-0.6
	c-0.3,0-2.4,0-2.4,0c-0.1,0-0.1,0-0.1,0.2v4.8c0,0.1,0,0.2,0.1,0.2c0.3,0,2.4,0,2.8-0.1c0.5,0,0.8-0.1,1-0.3
	c0.1-0.1,0.1-0.2,0.2-0.2c0,0,0.1,0,0.1,0.1c0,0.1-0.1,0.5-0.1,1.1c-0.1,0.6-0.1,1-0.1,1.3c0,0.2-0.1,0.2-0.1,0.2
	c-0.1,0-0.1-0.1-0.1-0.3c0-0.1,0-0.3-0.1-0.5c-0.1-0.3-0.2-0.6-1-0.6c-0.5,0-2.2-0.1-2.5-0.1c-0.1,0-0.1,0.1-0.1,0.1v1.5
	c0,0.7,0,2.5,0,2.9c0,0.8,0.1,1.2,0.6,1.4c0.3,0.1,0.8,0.2,1.5,0.2c0.4,0,1.1,0,1.6-0.1c0.6-0.2,0.8-0.6,0.9-1.4
	c0-0.2,0.1-0.3,0.2-0.3c0.1,0,0.1,0.2,0.1,0.3c0,0.1-0.2,1.5-0.2,1.8c-0.1,0.4-0.2,0.5-0.9,0.5c-1.4,0-2,0-2.7,0
	c-0.7,0-1.7-0.1-2.5-0.1c-0.5,0-0.9,0.1-1.4,0.1c-0.2,0-0.3,0-0.3-0.1c0-0.1,0.1-0.1,0.2-0.1c0.1,0,0.3,0,0.4-0.1
	c0.4-0.1,0.6-0.4,0.7-1.7c0-0.7,0-1.6,0-3.2V237.1z"/>
    <path fill="#9F8051" d="M178.5,237.1c0-2.8,0-3.3,0-3.8c0-0.6-0.2-0.9-0.8-1c-0.1,0-0.3,0-0.5,0c-0.1,0-0.2,0-0.2-0.1
	s0.1-0.1,0.3-0.1c0.9,0,2.2,0.1,2.2,0.1c0.2,0,1.6-0.1,2.2-0.1c1.2,0,2.5,0.1,3.4,0.8c0.4,0.3,1.3,1.1,1.3,2.6c0,1.2-0.6,2.6-2.2,4
	c1.5,1.9,2.8,3.4,3.9,4.6c1,1,1.6,1.2,2.2,1.3c0.1,0,0.6,0,0.7,0c0.2,0,0.2,0.1,0.2,0.1c0,0.1-0.1,0.1-0.4,0.1h-1.5
	c-1,0-1.4-0.1-1.9-0.3c-0.9-0.4-1.5-1.3-2.6-2.7c-0.8-1-1.7-2.1-2-2.6c-0.1-0.1-0.1-0.1-0.3-0.1l-2.2,0c-0.1,0-0.1,0-0.1,0.1v0.3
	c0,1.7,0,3.2,0.1,4c0.1,0.5,0.1,0.9,0.8,1c0.2,0,0.4,0,0.6,0c0.2,0,0.3,0.1,0.3,0.1c0,0.1-0.1,0.2-0.3,0.2c-1.1,0-2.3-0.1-2.4-0.1
	c-0.3,0-1.3,0.1-1.8,0.1c-0.2,0-0.3,0-0.3-0.2c0-0.1,0.1-0.1,0.3-0.1c0.1,0,0.3,0,0.5,0c0.4-0.1,0.5-0.3,0.5-0.8
	c0.1-0.8,0.1-2.5,0.1-4.1V237.1z M180.1,238.6c0,0.1,0,0.2,0.1,0.3c0.3,0.1,1.1,0.3,1.9,0.3c0.4,0,1,0,1.4-0.3c0.6-0.4,1-1.3,1-2.7
	c0-2.3-1.2-3.5-3.1-3.5c-0.5,0-1,0-1.2,0.1c-0.1,0-0.1,0.1-0.1,0.2V238.6z"/>
    <path fill="#9F8051" d="M196.2,237.1c0-2.8,0-3.3,0-3.8c0-0.6-0.2-0.9-0.8-1c-0.1,0-0.3,0-0.5,0c-0.1,0-0.3-0.1-0.3-0.1
	c0-0.1,0.1-0.2,0.3-0.2c0.4,0,1,0,2.2,0.1c0.1,0,3.8,0,4.3,0s0.7,0,0.8-0.1c0.1,0,0.1-0.1,0.2-0.1c0,0,0.1,0,0.1,0.1
	c0,0.1-0.1,0.4-0.2,0.9c0,0.4,0,0.7-0.1,1.1c0,0.2,0,0.3-0.1,0.3c-0.1,0-0.1-0.1-0.1-0.2c0-0.3-0.1-0.5-0.1-0.7
	c-0.1-0.4-0.3-0.6-1.4-0.6c-0.3,0-2.4,0-2.4,0c-0.1,0-0.1,0-0.1,0.2v4.8c0,0.1,0,0.2,0.1,0.2c0.3,0,2.4,0,2.8-0.1
	c0.5,0,0.8-0.1,1-0.3c0.1-0.1,0.1-0.2,0.2-0.2c0,0,0.1,0,0.1,0.1c0,0.1-0.1,0.5-0.1,1.1c-0.1,0.6-0.1,1-0.1,1.3
	c0,0.2-0.1,0.2-0.1,0.2c-0.1,0-0.1-0.1-0.1-0.3c0-0.1,0-0.3-0.1-0.5c-0.1-0.3-0.2-0.6-1-0.6c-0.5,0-2.2-0.1-2.5-0.1
	c-0.1,0-0.1,0.1-0.1,0.1v1.5c0,0.7,0,2.5,0,2.9c0,0.8,0.1,1.2,0.6,1.4c0.3,0.1,0.8,0.2,1.5,0.2c0.4,0,1.1,0,1.6-0.1
	c0.6-0.2,0.8-0.6,0.9-1.4c0-0.2,0.1-0.3,0.2-0.3c0.1,0,0.1,0.2,0.1,0.3c0,0.1-0.2,1.5-0.2,1.8c-0.1,0.4-0.2,0.5-0.9,0.5
	c-1.4,0-2,0-2.7,0c-0.7,0-1.7-0.1-2.5-0.1c-0.5,0-0.9,0.1-1.4,0.1c-0.2,0-0.3,0-0.3-0.1c0-0.1,0.1-0.1,0.2-0.1c0.1,0,0.3,0,0.4-0.1
	c0.4-0.1,0.6-0.4,0.7-1.7c0-0.7,0-1.6,0-3.2V237.1z"/>
    <path fill="#9F8051" d="M210,232.6c0-0.7,0.1-0.9,0.2-0.9c0.1,0,0.5,0.4,0.7,0.6c0.2,0.2,3.1,3.2,6,6.2c1.6,1.6,3.7,3.8,4.3,4.3
	L221,234c0-1.1-0.1-1.5-0.7-1.7c-0.4-0.1-0.7-0.1-0.8-0.1c-0.2,0-0.3-0.1-0.3-0.2c0-0.1,0.2-0.1,0.4-0.1c0.9,0,1.8,0.1,2,0.1
	c0.2,0,0.9-0.1,1.7-0.1c0.2,0,0.3,0,0.3,0.1c0,0.1-0.1,0.1-0.2,0.2s-0.3,0-0.5,0.1c-0.5,0.1-0.6,0.3-0.6,1.6l0,10.5
	c0,1,0,1.2-0.2,1.2c-0.1,0-0.4-0.1-1.4-1.1c-0.1,0-3-2.9-4.8-4.7c-2.2-2.3-4.3-4.5-4.8-5l0.3,8.2c0,1.4,0.2,2,0.7,2.1
	c0.3,0.1,0.7,0.1,0.9,0.1s0.3,0.1,0.3,0.1c0,0.1-0.1,0.1-0.3,0.1c-1.1,0-1.9-0.1-2-0.1c-0.1,0-0.9,0.1-1.8,0.1c-0.2,0-0.3,0-0.3-0.1
	c0-0.1,0.1-0.1,0.3-0.1c0.1,0,0.4,0,0.7-0.1c0.5-0.1,0.6-0.7,0.6-2.2C210,232.8,210,236,210,232.6z"/>
    <path fill="#9F8051" d="M233.3,243.8c-1.8-1.6-2.2-3.6-2.2-5.4c0-1.2,0.5-3.3,2.1-4.8c1.1-1.1,2.8-1.9,5.6-1.9c1,0,1.7,0.1,2.8,0.2
	c0.7,0.1,1.3,0.2,1.8,0.2c0.2,0,0.2,0.1,0.2,0.2c0,0.2-0.1,0.4-0.1,1c0,0.6,0,1.7,0,1.9c0,0.3-0.1,0.4-0.2,0.4
	c-0.1,0-0.2-0.1-0.2-0.4c0-0.6-0.3-1.4-0.8-1.8c-0.6-0.5-2.1-1.1-3.7-1.1c-2.3,0-3.4,0.7-4,1.2c-1.4,1.2-1.7,2.8-1.7,4.6
	c0,3.5,2.8,6.6,6.5,6.6c1.4,0,2.5-0.1,3.2-0.9c0.4-0.4,0.6-0.9,0.7-1.5c0-0.2,0.1-0.3,0.2-0.3c0.1,0,0.1,0.1,0.1,0.3
	c0,0.2-0.3,1.9-0.4,2.3c-0.1,0.3-0.2,0.4-0.5,0.5c-0.7,0.3-2.1,0.4-3.3,0.4C236.6,245.7,234.7,245,233.3,243.8z"/>
    <path fill="#9F8051" d="M251.8,237.1c0-2.8,0-3.3,0-3.8c0-0.6-0.2-0.9-0.8-1c-0.1,0-0.3,0-0.5,0c-0.1,0-0.3-0.1-0.3-0.1
	c0-0.1,0.1-0.2,0.3-0.2c0.4,0,1,0,2.2,0.1c0.1,0,3.8,0,4.3,0s0.7,0,0.8-0.1c0.1,0,0.1-0.1,0.2-0.1c0,0,0.1,0,0.1,0.1
	c0,0.1-0.1,0.4-0.2,0.9c0,0.4,0,0.7-0.1,1.1c0,0.2,0,0.3-0.1,0.3c-0.1,0-0.1-0.1-0.1-0.2c0-0.3-0.1-0.5-0.1-0.7
	c-0.1-0.4-0.3-0.6-1.4-0.6c-0.3,0-2.4,0-2.4,0c-0.1,0-0.1,0-0.1,0.2v4.8c0,0.1,0,0.2,0.1,0.2c0.3,0,2.4,0,2.8-0.1
	c0.5,0,0.8-0.1,1-0.3c0.1-0.1,0.1-0.2,0.2-0.2c0,0,0.1,0,0.1,0.1c0,0.1-0.1,0.5-0.1,1.1c-0.1,0.6-0.1,1-0.1,1.3
	c0,0.2-0.1,0.2-0.1,0.2c-0.1,0-0.1-0.1-0.1-0.3c0-0.1,0-0.3-0.1-0.5c-0.1-0.3-0.2-0.6-1-0.6c-0.5,0-2.2-0.1-2.5-0.1
	c-0.1,0-0.1,0.1-0.1,0.1v1.5c0,0.7,0,2.5,0,2.9c0,0.8,0.1,1.2,0.6,1.4c0.3,0.1,0.8,0.2,1.5,0.2c0.4,0,1.1,0,1.6-0.1
	c0.6-0.2,0.8-0.6,0.9-1.4c0-0.2,0.1-0.3,0.2-0.3c0.1,0,0.1,0.2,0.1,0.3c0,0.1-0.2,1.5-0.2,1.8c-0.1,0.4-0.2,0.5-0.9,0.5
	c-1.4,0-2,0-2.7,0c-0.7,0-1.7-0.1-2.5-0.1c-0.5,0-0.9,0.1-1.4,0.1c-0.2,0-0.3,0-0.3-0.1c0-0.1,0.1-0.1,0.2-0.1c0.1,0,0.3,0,0.4-0.1
	c0.4-0.1,0.6-0.4,0.7-1.7c0-0.7,0-1.6,0-3.2V237.1z"/>
</svg>
