<?xml version="1.0" encoding="UTF-8"?>
<svg enable-background="new 0 0 375 372" version="1.1" viewBox="0 0 375 372" xml:space="preserve" xmlns="http://www.w3.org/2000/svg">
    <path d="M340,47H35v131.5l8.5,15.4v99.2L184.9,346l144.9-58v-94.1l10.2-15.4V47z" fill="none" stroke="#9F8051" stroke-width="3"/>
    <g fill="#9F8051">
	    <path d="m149 190c0.4 3.5 1.1 9 5.3 10.4 2.8 0.9 5.1 0.9 6.1 0.9 0.5 0 1.1 0.1 1.1 0.6 0 0.6-0.3 0.8-1.5 0.8-2.2 0-13.3-0.3-16.9-0.6-2.2-0.2-2.7-0.5-2.7-1 0-0.4 0.2-0.5 0.7-0.7 0.7-0.3 0.6-1.8 0.4-3.5l-4.7-51-24.3 51.4c-2.1 4.3-2.3 5.2-3.2 5.2-0.7 0-1.2-1-3-4.5-2.5-4.8-11-21.7-11.4-22.7-0.9-1.8-12.1-25.9-13.2-28.6l-4 46.1c-0.1 1.6-0.2 2.9-0.2 4.6 0 2.4 1.2 3.2 2.6 3.5 1.7 0.4 2.9 0.4 3.5 0.4s1 0.2 1 0.5c0 0.7-0.5 0.9-1.5 0.9-3.6 0-8.6-0.3-9.4-0.3-0.9 0-5.6 0.3-8.2 0.3-1 0-1.7-0.1-1.7-0.8 0-0.4 0.5-0.6 1-0.6 0.8 0 1.5 0 2.9-0.3 3.2-0.6 3.4-4.1 3.9-8.1l7-63.6c0.1-1.1 0.5-2 1.1-2s1 0.4 1.5 1.5l29.9 61.5 28.8-61.4c0.4-0.9 0.8-1.6 1.5-1.6s1 0.8 1.2 2.6l6.4 60.1z"/>
        <path d="m186.7 163.3c3-2.9 16.3-16.9 22.3-23.1 5.9-6.1 6.3-7 6.3-8.2 0-0.8-0.5-1.6-1.3-1.9-0.7-0.3-0.9-0.5-0.9-0.9s0.6-0.6 1.5-0.6c2.8 0 2.5 0.3 5.9 0.3 3 0 8.8-0.3 10.4-0.3 1.4 0 1.7 0.3 1.7 0.7s-0.2 0.6-1.1 0.7c-1.9 0.2-3.6 0.6-5 1.2-2.4 1-4.3 2.2-10.2 7.8-8.6 8.3-19.8 19.4-22.3 22.2 6.2 6.7 24 24.8 28.6 29.1 8 7.5 11.4 9.7 16.1 10.6 0.9 0.2 1.9 0.3 2.8 0.3 0.8 0 1.4 0.2 1.4 0.7s-0.4 0.7-1.5 0.7h-7.2c-8.5 0-10.8-1.1-15.4-4.7-5.9-4.6-23.5-23.5-32.1-33.7v10.1c0 9.4 0 17.1 0.5 21.2 0.3 2.8 0.9 5 3.8 5.4 1.4 0.2 3.3 0.4 3.9 0.4 0.9 0 1.2 0.4 1.2 0.7 0 0.5-0.4 0.7-1.5 0.7-5.4 0-11.5-0.3-12-0.3s-6.3 0.3-9.2 0.3c-1.1 0-1.6-0.1-1.6-0.7 0-0.3 0.2-0.7 1.1-0.7 0.6 0 1.7-0.1 2.5-0.3 2-0.4 2.5-2.6 2.9-5.5 0.5-4.1 0.5-11.8 0.5-21.2v-17.3c0-15.3 0-18-0.2-21.1-0.2-3.3-1.2-5-3.3-5.5-1.1-0.3-2.8-0.4-3.5-0.4-0.8 0-1.1-0.2-1.1-0.6 0-0.6 0.5-0.8 1.6-0.8 3.2 0 9.8 0.3 10.3 0.3s6.6-0.3 9.6-0.3c1.1 0 1.6 0.2 1.6 0.7 0 0.4-0.2 0.6-1.1 0.7-1.1 0.1-1.2 0.1-2.2 0.2-2.6 0.3-3.4 2.2-3.6 5.7-0.2 3.1-0.2 5.9-0.2 21.1v6.3z"/>
        <path d="m254 140.7c0-2-0.2-3.1-1.5-3.1-2.4 0-9 3-9.5 3-0.3 0-0.9-0.1-0.9-0.5 0-0.3 0.3-0.7 0.7-1 6.3-4.2 10-6.5 16.2-10.7 0.9-0.6 1.7-1.2 2.3-1.2 0.8 0 0.8 1.1 0.8 2.1 0 0.3-0.6 21.2-0.6 43.5 0 9.8 0.2 18.5 0.5 22.8 0.2 3 0.9 4.7 4.1 5 1.2 0.1 2 0.2 2.6 0.3 1 0.1 1.6 0.4 1.6 1 0 0.5-0.5 0.7-1.7 0.7-7.3 0-10.7-0.3-11.1-0.3-0.5 0-5.8 0.3-12 0.3-1.1 0-1.7-0.2-1.7-0.7 0-0.4 0.4-0.8 1.4-0.8 1.6 0 2.6-0.2 3.7-0.3 3.6-0.3 4.4-2 4.7-5.8 0.3-4.3 0.3-12.4 0.3-22.2v-32.1z"/>
        <path d="m293.2 140.7c0-2-0.2-3.1-1.5-3.1-2.4 0-9 3-9.5 3-0.3 0-0.9-0.1-0.9-0.5 0-0.3 0.3-0.7 0.7-1 6.3-4.2 10-6.5 16.2-10.7 0.9-0.6 1.7-1.2 2.3-1.2 0.8 0 0.8 1.1 0.8 2.1 0 0.3-0.6 21.2-0.6 43.5 0 9.8 0.2 18.5 0.5 22.8 0.2 3 0.9 4.7 4.1 5 1.2 0.1 2 0.2 2.6 0.3 1 0.1 1.6 0.4 1.6 1 0 0.5-0.5 0.7-1.7 0.7-7.3 0-10.7-0.3-11.1-0.3-0.5 0-5.8 0.3-12 0.3-1.1 0-1.7-0.2-1.7-0.7 0-0.4 0.4-0.8 1.4-0.8 1.6 0 2.6-0.2 3.7-0.3 3.6-0.3 4.4-2 4.7-5.8 0.3-4.3 0.3-12.4 0.3-22.2v-32.1z"/>
        <path d="m115 235.7v-4.5c0-0.7-0.2-1.1-0.9-1.2-0.2 0-0.5-0.1-0.7-0.1-0.1 0-0.2 0-0.2-0.1s0.1-0.2 0.3-0.2c0.9 0 2.3 0.1 2.4 0.1 0.2 0 1.8-0.1 2.5-0.1 1.3 0 2.7 0.1 3.8 0.9 0.5 0.4 1.4 1.4 1.4 2.9 0 1.6-0.7 3.1-2.5 4.9 1.7 2.2 3.1 4.1 4.4 5.4 1.1 1.2 2 1.4 2.6 1.5 0.4 0.1 0.7 0.1 0.8 0.1s0.2 0.1 0.2 0.1c0 0.1-0.1 0.2-0.5 0.2h-1.6c-1.2 0-1.7-0.1-2.2-0.4-0.9-0.5-1.6-1.5-2.8-3.1-0.9-1.2-1.9-2.6-2.3-3.1-0.1-0.1-0.1-0.1-0.3-0.1h-2.6c-0.1 0-0.1 0.1-0.1 0.2v0.5c0 2 0 3.7 0.1 4.6 0.1 0.6 0.2 1.1 0.8 1.2 0.3 0 0.8 0.1 0.9 0.1s0.2 0.1 0.2 0.1c0 0.1-0.1 0.2-0.3 0.2-1.2 0-2.5-0.1-2.6-0.1 0 0-1.3 0.1-2 0.1-0.2 0-0.3 0-0.3-0.2 0-0.1 0-0.1 0.2-0.1s0.4 0 0.6-0.1c0.4-0.1 0.5-0.5 0.6-1.2 0.1-0.9 0.1-2.5 0.1-4.6v-3.9zm1.7 1.8c0 0.1 0 0.2 0.1 0.3 0.3 0.2 1.3 0.3 2.2 0.3 0.5 0 1.1-0.1 1.6-0.4 0.7-0.5 1.3-1.6 1.3-3.2 0-2.6-1.4-4.2-3.6-4.2-0.6 0-1.2 0.1-1.4 0.1-0.1 0-0.2 0.1-0.2 0.3v6.8z"/>
        <path d="m133.8 237.1v-3.8c0-0.6-0.2-0.9-0.8-1h-0.5c-0.1 0-0.3-0.1-0.3-0.1 0-0.1 0.1-0.2 0.3-0.2 0.4 0 1 0 2.2 0.1h4.3s0.7 0 0.8-0.1c0.1 0 0.1-0.1 0.2-0.1 0 0 0.1 0 0.1 0.1s-0.1 0.4-0.2 0.9c0 0.4 0 0.7-0.1 1.1 0 0.2 0 0.3-0.1 0.3s-0.1-0.1-0.1-0.2c0-0.3-0.1-0.5-0.1-0.7-0.1-0.4-0.3-0.6-1.4-0.6h-2.4c-0.1 0-0.1 0-0.1 0.2v4.8c0 0.1 0 0.2 0.1 0.2 0.3 0 2.4 0 2.8-0.1 0.5 0 0.8-0.1 1-0.3 0.1-0.1 0.1-0.2 0.2-0.2 0 0 0.1 0 0.1 0.1s-0.1 0.5-0.1 1.1c-0.1 0.6-0.1 1-0.1 1.3 0 0.2-0.1 0.2-0.1 0.2-0.1 0-0.1-0.1-0.1-0.3 0-0.1 0-0.3-0.1-0.5-0.1-0.3-0.2-0.6-1-0.6-0.5 0-2.2-0.1-2.5-0.1-0.1 0-0.1 0.1-0.1 0.1v1.5 2.9c0 0.8 0.1 1.2 0.6 1.4 0.3 0.1 0.8 0.2 1.5 0.2 0.4 0 1.1 0 1.6-0.1 0.6-0.2 0.8-0.6 0.9-1.4 0-0.2 0.1-0.3 0.2-0.3s0.1 0.2 0.1 0.3-0.2 1.5-0.2 1.8c-0.1 0.4-0.2 0.5-0.9 0.5h-2.7c-0.7 0-1.7-0.1-2.5-0.1-0.5 0-0.9 0.1-1.4 0.1-0.2 0-0.3 0-0.3-0.1s0.1-0.1 0.2-0.1 0.3 0 0.4-0.1c0.4-0.1 0.6-0.4 0.7-1.7v-3.2-3.2z"/>
        <path d="m148.8 237.1v-3.8c0-0.6-0.1-0.9-0.8-1h-0.5c-0.2 0-0.3-0.1-0.3-0.2s0.1-0.1 0.3-0.1c0.8 0 1.4 0.1 2.1 0.1h4.6c0.4 0 0.7-0.1 0.9-0.1 0.1 0 0.2-0.1 0.2-0.1 0.1 0 0.1 0.1 0.1 0.2s-0.1 0.4-0.1 0.7c-0.1 0.5-0.1 0.9-0.1 1.5 0 0.2-0.1 0.3-0.1 0.3-0.1 0-0.1-0.1-0.2-0.3 0-0.2-0.1-0.8-0.3-1.1-0.3-0.3-0.7-0.3-1.2-0.3h-2.6c-0.1 0-0.2 0-0.2 0.2v4.7c0 0.1 0 0.2 0.1 0.2h2.6c0.9 0 1.1-0.1 1.4-0.4 0.1-0.1 0.1-0.2 0.2-0.2s0.1 0.1 0.1 0.2-0.1 0.5-0.1 1.1c-0.1 0.6-0.1 0.9-0.1 1.2 0 0.2 0 0.3-0.1 0.3s-0.1-0.1-0.1-0.3c0-0.3-0.1-1-1.1-1.1-0.4-0.1-2.3-0.1-2.6-0.1-0.1 0-0.1 0-0.1 0.2v1.5 3.5c0 1 0.2 1.2 0.8 1.3 0.3 0 0.5 0.1 0.7 0.1s0.3 0.1 0.3 0.1-0.1 0.1-0.3 0.1c-1.1 0-2.2-0.1-2.3-0.1h-0.1c-0.4 0-1.3 0.1-1.7 0.1-0.2 0-0.3 0-0.3-0.1s0-0.1 0.2-0.1h0.4c0.5-0.1 0.5-0.4 0.6-1.2s0.1-2 0.1-3.7v-3.3z"/>
        <path d="m163.6 237.1v-3.8c0-0.6-0.2-0.9-0.8-1h-0.5c-0.1 0-0.3-0.1-0.3-0.1 0-0.1 0.1-0.2 0.3-0.2 0.4 0 1 0 2.2 0.1h4.3s0.7 0 0.8-0.1c0.1 0 0.1-0.1 0.2-0.1 0 0 0.1 0 0.1 0.1s-0.1 0.4-0.2 0.9c0 0.4 0 0.7-0.1 1.1 0 0.2 0 0.3-0.1 0.3s-0.1-0.1-0.1-0.2c0-0.3-0.1-0.5-0.1-0.7-0.1-0.4-0.3-0.6-1.4-0.6h-2.4c-0.1 0-0.1 0-0.1 0.2v4.8c0 0.1 0 0.2 0.1 0.2 0.3 0 2.4 0 2.8-0.1 0.5 0 0.8-0.1 1-0.3 0.1-0.1 0.1-0.2 0.2-0.2 0 0 0.1 0 0.1 0.1s-0.1 0.5-0.1 1.1c-0.1 0.6-0.1 1-0.1 1.3 0 0.2-0.1 0.2-0.1 0.2-0.1 0-0.1-0.1-0.1-0.3 0-0.1 0-0.3-0.1-0.5-0.1-0.3-0.2-0.6-1-0.6-0.5 0-2.2-0.1-2.5-0.1-0.1 0-0.1 0.1-0.1 0.1v1.5 2.9c0 0.8 0.1 1.2 0.6 1.4 0.3 0.1 0.8 0.2 1.5 0.2 0.4 0 1.1 0 1.6-0.1 0.6-0.2 0.8-0.6 0.9-1.4 0-0.2 0.1-0.3 0.2-0.3s0.1 0.2 0.1 0.3-0.2 1.5-0.2 1.8c-0.1 0.4-0.2 0.5-0.9 0.5h-2.7c-0.7 0-1.7-0.1-2.5-0.1-0.5 0-0.9 0.1-1.4 0.1-0.2 0-0.3 0-0.3-0.1s0.1-0.1 0.2-0.1 0.3 0 0.4-0.1c0.4-0.1 0.6-0.4 0.7-1.7v-3.2-3.2z"/>
        <path d="m178.5 237.1v-3.8c0-0.6-0.2-0.9-0.8-1h-0.5c-0.1 0-0.2 0-0.2-0.1s0.1-0.1 0.3-0.1c0.9 0 2.2 0.1 2.2 0.1 0.2 0 1.6-0.1 2.2-0.1 1.2 0 2.5 0.1 3.4 0.8 0.4 0.3 1.3 1.1 1.3 2.6 0 1.2-0.6 2.6-2.2 4 1.5 1.9 2.8 3.4 3.9 4.6 1 1 1.6 1.2 2.2 1.3h0.7c0.2 0 0.2 0.1 0.2 0.1 0 0.1-0.1 0.1-0.4 0.1h-1.5c-1 0-1.4-0.1-1.9-0.3-0.9-0.4-1.5-1.3-2.6-2.7-0.8-1-1.7-2.1-2-2.6-0.1-0.1-0.1-0.1-0.3-0.1h-2.2c-0.1 0-0.1 0-0.1 0.1v0.3c0 1.7 0 3.2 0.1 4 0.1 0.5 0.1 0.9 0.8 1h0.6c0.2 0 0.3 0.1 0.3 0.1 0 0.1-0.1 0.2-0.3 0.2-1.1 0-2.3-0.1-2.4-0.1-0.3 0-1.3 0.1-1.8 0.1-0.2 0-0.3 0-0.3-0.2 0-0.1 0.1-0.1 0.3-0.1h0.5c0.4-0.1 0.5-0.3 0.5-0.8 0.1-0.8 0.1-2.5 0.1-4.1v-3.3zm1.6 1.5c0 0.1 0 0.2 0.1 0.3 0.3 0.1 1.1 0.3 1.9 0.3 0.4 0 1 0 1.4-0.3 0.6-0.4 1-1.3 1-2.7 0-2.3-1.2-3.5-3.1-3.5-0.5 0-1 0-1.2 0.1-0.1 0-0.1 0.1-0.1 0.2v5.6z"/>
        <path d="m196.2 237.1v-3.8c0-0.6-0.2-0.9-0.8-1h-0.5c-0.1 0-0.3-0.1-0.3-0.1 0-0.1 0.1-0.2 0.3-0.2 0.4 0 1 0 2.2 0.1h4.3s0.7 0 0.8-0.1c0.1 0 0.1-0.1 0.2-0.1 0 0 0.1 0 0.1 0.1s-0.1 0.4-0.2 0.9c0 0.4 0 0.7-0.1 1.1 0 0.2 0 0.3-0.1 0.3s-0.1-0.1-0.1-0.2c0-0.3-0.1-0.5-0.1-0.7-0.1-0.4-0.3-0.6-1.4-0.6h-2.4c-0.1 0-0.1 0-0.1 0.2v4.8c0 0.1 0 0.2 0.1 0.2 0.3 0 2.4 0 2.8-0.1 0.5 0 0.8-0.1 1-0.3 0.1-0.1 0.1-0.2 0.2-0.2 0 0 0.1 0 0.1 0.1s-0.1 0.5-0.1 1.1c-0.1 0.6-0.1 1-0.1 1.3 0 0.2-0.1 0.2-0.1 0.2-0.1 0-0.1-0.1-0.1-0.3 0-0.1 0-0.3-0.1-0.5-0.1-0.3-0.2-0.6-1-0.6-0.5 0-2.2-0.1-2.5-0.1-0.1 0-0.1 0.1-0.1 0.1v1.5 2.9c0 0.8 0.1 1.2 0.6 1.4 0.3 0.1 0.8 0.2 1.5 0.2 0.4 0 1.1 0 1.6-0.1 0.6-0.2 0.8-0.6 0.9-1.4 0-0.2 0.1-0.3 0.2-0.3s0.1 0.2 0.1 0.3-0.2 1.5-0.2 1.8c-0.1 0.4-0.2 0.5-0.9 0.5h-2.7c-0.7 0-1.7-0.1-2.5-0.1-0.5 0-0.9 0.1-1.4 0.1-0.2 0-0.3 0-0.3-0.1s0.1-0.1 0.2-0.1 0.3 0 0.4-0.1c0.4-0.1 0.6-0.4 0.7-1.7v-3.2-3.2z"/>
        <path d="m210 232.6c0-0.7 0.1-0.9 0.2-0.9s0.5 0.4 0.7 0.6 3.1 3.2 6 6.2c1.6 1.6 3.7 3.8 4.3 4.3l-0.2-8.8c0-1.1-0.1-1.5-0.7-1.7-0.4-0.1-0.7-0.1-0.8-0.1-0.2 0-0.3-0.1-0.3-0.2s0.2-0.1 0.4-0.1c0.9 0 1.8 0.1 2 0.1s0.9-0.1 1.7-0.1c0.2 0 0.3 0 0.3 0.1s-0.1 0.1-0.2 0.2-0.3 0-0.5 0.1c-0.5 0.1-0.6 0.3-0.6 1.6v10.5c0 1 0 1.2-0.2 1.2-0.1 0-0.4-0.1-1.4-1.1-0.1 0-3-2.9-4.8-4.7-2.2-2.3-4.3-4.5-4.8-5l0.3 8.2c0 1.4 0.2 2 0.7 2.1 0.3 0.1 0.7 0.1 0.9 0.1s0.3 0.1 0.3 0.1c0 0.1-0.1 0.1-0.3 0.1-1.1 0-1.9-0.1-2-0.1s-0.9 0.1-1.8 0.1c-0.2 0-0.3 0-0.3-0.1s0.1-0.1 0.3-0.1c0.1 0 0.4 0 0.7-0.1 0.5-0.1 0.6-0.7 0.6-2.2-0.5-10.1-0.5-6.9-0.5-10.3z"/>
        <path d="m233.3 243.8c-1.8-1.6-2.2-3.6-2.2-5.4 0-1.2 0.5-3.3 2.1-4.8 1.1-1.1 2.8-1.9 5.6-1.9 1 0 1.7 0.1 2.8 0.2 0.7 0.1 1.3 0.2 1.8 0.2 0.2 0 0.2 0.1 0.2 0.2 0 0.2-0.1 0.4-0.1 1v1.9c0 0.3-0.1 0.4-0.2 0.4s-0.2-0.1-0.2-0.4c0-0.6-0.3-1.4-0.8-1.8-0.6-0.5-2.1-1.1-3.7-1.1-2.3 0-3.4 0.7-4 1.2-1.4 1.2-1.7 2.8-1.7 4.6 0 3.5 2.8 6.6 6.5 6.6 1.4 0 2.5-0.1 3.2-0.9 0.4-0.4 0.6-0.9 0.7-1.5 0-0.2 0.1-0.3 0.2-0.3s0.1 0.1 0.1 0.3-0.3 1.9-0.4 2.3c-0.1 0.3-0.2 0.4-0.5 0.5-0.7 0.3-2.1 0.4-3.3 0.4-2.8 0.2-4.7-0.5-6.1-1.7z"/>
        <path d="m251.8 237.1v-3.8c0-0.6-0.2-0.9-0.8-1h-0.5c-0.1 0-0.3-0.1-0.3-0.1 0-0.1 0.1-0.2 0.3-0.2 0.4 0 1 0 2.2 0.1h4.3s0.7 0 0.8-0.1c0.1 0 0.1-0.1 0.2-0.1 0 0 0.1 0 0.1 0.1s-0.1 0.4-0.2 0.9c0 0.4 0 0.7-0.1 1.1 0 0.2 0 0.3-0.1 0.3s-0.1-0.1-0.1-0.2c0-0.3-0.1-0.5-0.1-0.7-0.1-0.4-0.3-0.6-1.4-0.6h-2.4c-0.1 0-0.1 0-0.1 0.2v4.8c0 0.1 0 0.2 0.1 0.2 0.3 0 2.4 0 2.8-0.1 0.5 0 0.8-0.1 1-0.3 0.1-0.1 0.1-0.2 0.2-0.2 0 0 0.1 0 0.1 0.1s-0.1 0.5-0.1 1.1c-0.1 0.6-0.1 1-0.1 1.3 0 0.2-0.1 0.2-0.1 0.2-0.1 0-0.1-0.1-0.1-0.3 0-0.1 0-0.3-0.1-0.5-0.1-0.3-0.2-0.6-1-0.6-0.5 0-2.2-0.1-2.5-0.1-0.1 0-0.1 0.1-0.1 0.1v1.5 2.9c0 0.8 0.1 1.2 0.6 1.4 0.3 0.1 0.8 0.2 1.5 0.2 0.4 0 1.1 0 1.6-0.1 0.6-0.2 0.8-0.6 0.9-1.4 0-0.2 0.1-0.3 0.2-0.3s0.1 0.2 0.1 0.3-0.2 1.5-0.2 1.8c-0.1 0.4-0.2 0.5-0.9 0.5h-2.7c-0.7 0-1.7-0.1-2.5-0.1-0.5 0-0.9 0.1-1.4 0.1-0.2 0-0.3 0-0.3-0.1s0.1-0.1 0.2-0.1 0.3 0 0.4-0.1c0.4-0.1 0.6-0.4 0.7-1.7v-3.2-3.2z"/>
    </g>
</svg>
